<?xml version="1.0" standalone="no"?>
<!DOCTYPE svg PUBLIC "-//W3C//DTD SVG 20010904//EN"
 "http://www.w3.org/TR/2001/REC-SVG-20010904/DTD/svg10.dtd">
<svg version="1.0" xmlns="http://www.w3.org/2000/svg"
 width="1280.000000pt" height="284.000000pt" viewBox="0 0 1280.000000 284.000000"
 preserveAspectRatio="xMidYMid meet">
<metadata>
Created by potrace 1.16, written by Peter Selinger 2001-2019
</metadata>
<g transform="translate(0.000000,284.000000) scale(0.100000,-0.100000)"
fill="#FFFFFF" stroke="none">
<path d="M0 1985 l0 -855 47 19 c1329 531 1616 636 2178 797 783 225 1575 341
2180 319 624 -22 1072 -94 2255 -360 865 -195 1195 -260 1590 -314 809 -111
1696 -93 2725 54 352 50 583 92 1238 221 l587 117 0 428 0 429 -6400 0 -6400
0 0 -855z"/>
</g>
</svg>
