<svg xmlns="http://www.w3.org/2000/svg" xmlns:xlink="http://www.w3.org/1999/xlink" width="128" zoomAndPan="magnify" viewBox="0 0 96 95.999999" height="128" preserveAspectRatio="xMidYMid meet" version="1.0"><defs><g/></defs><path fill="#00dd80" d="M 48 0 C 21.492188 0 0 21.492188 0 48 C 0 74.507812 21.492188 96 48 96 C 74.507812 96 96 74.507812 96 48 C 96 21.492188 74.507812 0 48 0 " fill-opacity="1" fill-rule="nonzero"/><g fill="#000000" fill-opacity="1"><g transform="translate(25.765625, 66.768831)"><g><path d="M 39.140625 -17.625 C 40.410156 -17.625 41.375 -17.359375 42.03125 -16.828125 C 42.695312 -16.304688 43.03125 -15.566406 43.03125 -14.609375 C 43.03125 -14.203125 42.960938 -13.75 42.828125 -13.25 L 40.5625 -5.265625 C 39.976562 -3.304688 39.148438 -1.9375 38.078125 -1.15625 C 37.003906 -0.382812 35.421875 0 33.328125 0 L 1.234375 0 C 0.273438 0 -0.460938 -0.15625 -0.984375 -0.46875 C -1.515625 -0.789062 -1.78125 -1.226562 -1.78125 -1.78125 C -1.78125 -2.050781 -1.710938 -2.34375 -1.578125 -2.65625 C -1.429688 -3.019531 -1.195312 -3.328125 -0.875 -3.578125 C -0.5625 -3.835938 -0.222656 -4.078125 0.140625 -4.296875 C 0.867188 -4.753906 1.457031 -5.222656 1.90625 -5.703125 C 2.363281 -6.179688 2.753906 -6.96875 3.078125 -8.0625 L 11.40625 -37.5 C 11.582031 -38.09375 11.671875 -38.660156 11.671875 -39.203125 C 11.671875 -39.703125 11.59375 -40.125 11.4375 -40.46875 C 11.28125 -40.8125 11.066406 -41.207031 10.796875 -41.65625 C 10.378906 -42.25 10.171875 -42.726562 10.171875 -43.09375 C 10.171875 -43.226562 10.21875 -43.476562 10.3125 -43.84375 C 10.5 -44.4375 10.898438 -44.859375 11.515625 -45.109375 C 12.128906 -45.359375 13.070312 -45.484375 14.34375 -45.484375 L 30.390625 -45.484375 C 31.347656 -45.484375 32.085938 -45.332031 32.609375 -45.03125 C 33.128906 -44.738281 33.390625 -44.320312 33.390625 -43.78125 C 33.390625 -43.550781 33.320312 -43.253906 33.1875 -42.890625 C 33.050781 -42.566406 32.859375 -42.28125 32.609375 -42.03125 C 32.359375 -41.78125 32.128906 -41.597656 31.921875 -41.484375 C 31.722656 -41.367188 31.578125 -41.269531 31.484375 -41.1875 C 30.753906 -40.769531 30.160156 -40.3125 29.703125 -39.8125 C 29.253906 -39.3125 28.867188 -38.539062 28.546875 -37.5 L 19.734375 -6.5625 L 23.96875 -6.5625 C 25.019531 -6.5625 25.921875 -6.742188 26.671875 -7.109375 C 27.421875 -7.472656 28.207031 -8.15625 29.03125 -9.15625 L 33.734375 -14.75 C 34.597656 -15.75 35.425781 -16.476562 36.21875 -16.9375 C 37.019531 -17.394531 37.992188 -17.625 39.140625 -17.625 Z M 39.140625 -17.625 "/></g></g></g></svg>