<svg xmlns="http://www.w3.org/2000/svg" xmlns:xlink="http://www.w3.org/1999/xlink" width="128" zoomAndPan="magnify" viewBox="0 0 96 95.999999" height="128" preserveAspectRatio="xMidYMid meet" version="1.0"><defs><g/></defs><path fill="#00dd80" d="M 48 0 C 21.492188 0 0 21.9375 0 49 C 0 76.0625 21.492188 98 48 98 C 74.507812 98 96 76.0625 96 49 C 96 21.9375 74.507812 0 48 0 " fill-opacity="1" fill-rule="nonzero"/><g fill="#000000" fill-opacity="1"><g transform="translate(25.765625, 68.268825)"><g><path d="M 39.140625 -17.625 C 40.421875 -17.625 41.390625 -17.359375 42.046875 -16.828125 C 42.703125 -16.304688 43.03125 -15.570312 43.03125 -14.625 C 43.03125 -14.207031 42.960938 -13.75 42.828125 -13.25 L 40.578125 -5.265625 C 39.984375 -3.304688 39.148438 -1.9375 38.078125 -1.15625 C 37.015625 -0.382812 35.4375 0 33.34375 0 L 1.234375 0 C 0.273438 0 -0.460938 -0.15625 -0.984375 -0.46875 C -1.515625 -0.789062 -1.78125 -1.226562 -1.78125 -1.78125 C -1.78125 -2.050781 -1.710938 -2.347656 -1.578125 -2.671875 C -1.429688 -3.023438 -1.195312 -3.328125 -0.875 -3.578125 C -0.5625 -3.835938 -0.222656 -4.078125 0.140625 -4.296875 C 0.867188 -4.753906 1.457031 -5.222656 1.90625 -5.703125 C 2.363281 -6.179688 2.753906 -6.96875 3.078125 -8.0625 L 11.40625 -37.5 C 11.59375 -38.09375 11.6875 -38.664062 11.6875 -39.21875 C 11.6875 -39.71875 11.601562 -40.132812 11.4375 -40.46875 C 11.28125 -40.8125 11.066406 -41.210938 10.796875 -41.671875 C 10.378906 -42.265625 10.171875 -42.742188 10.171875 -43.109375 C 10.171875 -43.242188 10.21875 -43.492188 10.3125 -43.859375 C 10.5 -44.453125 10.898438 -44.875 11.515625 -45.125 C 12.128906 -45.375 13.070312 -45.5 14.34375 -45.5 L 30.40625 -45.5 C 31.351562 -45.5 32.085938 -45.347656 32.609375 -45.046875 C 33.140625 -44.753906 33.40625 -44.332031 33.40625 -43.78125 C 33.40625 -43.5625 33.335938 -43.269531 33.203125 -42.90625 C 33.066406 -42.582031 32.875 -42.296875 32.625 -42.046875 C 32.375 -41.796875 32.144531 -41.613281 31.9375 -41.5 C 31.726562 -41.382812 31.578125 -41.28125 31.484375 -41.1875 C 30.765625 -40.78125 30.175781 -40.328125 29.71875 -39.828125 C 29.257812 -39.328125 28.867188 -38.550781 28.546875 -37.5 L 19.75 -6.5625 L 23.984375 -6.5625 C 25.023438 -6.5625 25.921875 -6.742188 26.671875 -7.109375 C 27.421875 -7.472656 28.207031 -8.15625 29.03125 -9.15625 L 33.75 -14.75 C 34.613281 -15.757812 35.441406 -16.488281 36.234375 -16.9375 C 37.035156 -17.394531 38.003906 -17.625 39.140625 -17.625 Z M 39.140625 -17.625 "/></g></g></g></svg>