<svg xmlns="http://www.w3.org/2000/svg" xmlns:xlink="http://www.w3.org/1999/xlink" width="128" zoomAndPan="magnify" viewBox="0 0 96 95.999999" height="128" preserveAspectRatio="xMidYMid meet" version="1.0"><defs><g/></defs><path fill="#00dd80" d="M 48.226562 1.199219 C 22.128906 1.199219 0.976562 22.1875 0.976562 48.074219 C 0.976562 73.964844 22.128906 94.949219 48.226562 94.949219 C 74.320312 94.949219 95.476562 73.964844 95.476562 48.074219 C 95.476562 22.1875 74.320312 1.199219 48.226562 1.199219 " fill-opacity="1" fill-rule="nonzero"/><g fill="#000000" fill-opacity="1"><g transform="translate(26.620602, 67.113723)"><g><path d="M 37.640625 -16.953125 C 38.867188 -16.953125 39.800781 -16.695312 40.4375 -16.1875 C 41.070312 -15.6875 41.390625 -14.976562 41.390625 -14.0625 C 41.390625 -13.664062 41.320312 -13.226562 41.1875 -12.75 L 39.015625 -5.0625 C 38.453125 -3.175781 37.65625 -1.859375 36.625 -1.109375 C 35.59375 -0.367188 34.070312 0 32.0625 0 L 1.1875 0 C 0.257812 0 -0.453125 -0.148438 -0.953125 -0.453125 C -1.453125 -0.765625 -1.703125 -1.179688 -1.703125 -1.703125 C -1.703125 -1.972656 -1.640625 -2.257812 -1.515625 -2.5625 C -1.378906 -2.914062 -1.15625 -3.210938 -0.84375 -3.453125 C -0.539062 -3.691406 -0.21875 -3.921875 0.125 -4.140625 C 0.832031 -4.578125 1.40625 -5.023438 1.84375 -5.484375 C 2.28125 -5.941406 2.648438 -6.695312 2.953125 -7.75 L 10.96875 -36.0625 C 11.144531 -36.632812 11.234375 -37.179688 11.234375 -37.703125 C 11.234375 -38.179688 11.15625 -38.582031 11 -38.90625 C 10.84375 -39.238281 10.632812 -39.625 10.375 -40.0625 C 9.976562 -40.632812 9.78125 -41.097656 9.78125 -41.453125 C 9.78125 -41.578125 9.828125 -41.816406 9.921875 -42.171875 C 10.097656 -42.742188 10.476562 -43.148438 11.0625 -43.390625 C 11.65625 -43.628906 12.566406 -43.75 13.796875 -43.75 L 29.234375 -43.75 C 30.148438 -43.75 30.859375 -43.601562 31.359375 -43.3125 C 31.867188 -43.03125 32.125 -42.628906 32.125 -42.109375 C 32.125 -41.890625 32.054688 -41.601562 31.921875 -41.25 C 31.796875 -40.945312 31.609375 -40.671875 31.359375 -40.421875 C 31.117188 -40.179688 30.898438 -40.003906 30.703125 -39.890625 C 30.503906 -39.785156 30.363281 -39.691406 30.28125 -39.609375 C 29.582031 -39.210938 29.015625 -38.773438 28.578125 -38.296875 C 28.140625 -37.816406 27.765625 -37.070312 27.453125 -36.0625 L 18.984375 -6.3125 L 23.0625 -6.3125 C 24.0625 -6.3125 24.921875 -6.484375 25.640625 -6.828125 C 26.367188 -7.179688 27.128906 -7.835938 27.921875 -8.796875 L 32.453125 -14.1875 C 33.285156 -15.15625 34.082031 -15.859375 34.84375 -16.296875 C 35.613281 -16.734375 36.546875 -16.953125 37.640625 -16.953125 Z M 37.640625 -16.953125 "/></g></g></g></svg>