<?xml version="1.0" standalone="no"?>
<!DOCTYPE svg PUBLIC "-//W3C//DTD SVG 1.0//EN" "http://www.w3.org/TR/2001/REC-SVG-20010904/DTD/svg10.dtd">
<svg xmlns="http://www.w3.org/2000/svg" xmlns:xlink="http://www.w3.org/1999/xlink" id="body_1" width="667" height="667">

<defs>
    <clipPath  id="1">

    <path id=""  clip-rule="evenodd" transform="matrix(1 0 0 1 0 0)"  d="M500 0L500 500L500 500L0 500L0 500L0 0L0 0L500 0z" />    </clipPath>
</defs>

<g transform="matrix(1.3333 0 0 1.3333 0 0)">
	<g clip-path="url(#1)" >
    <path id=""  transform="matrix(1 0 0 -1 0 500)"  d="M499.99997 272.22223L499.99997 272.22223L499.99997 272.22223L472.2222 266.66666L472.2222 266.66666L472.2222 266.66666C 444.44443 261.1111 388.88885 250 333.3333 255.55556L333.3333 255.55556L333.3333 255.55556C 277.77777 261.1111 222.2222 283.3333 166.66666 283.3333L166.66666 283.3333L166.66666 283.3333C 111.111084 283.3333 55.555542 261.1111 27.77774 250L27.77774 250L-3.0517578E-05 238.88889L-3.0517578E-05 238.88889L-3.0517578E-05 305.55554L-3.0517578E-05 305.55554L27.77774 305.55554L27.77774 305.55554L27.77774 305.55554C 55.555542 305.55554 111.111084 305.55554 166.66666 305.55554L166.66666 305.55554L166.66666 305.55554C 222.2222 305.55554 277.77777 305.55554 333.3333 305.55554L333.3333 305.55554L333.3333 305.55554C 388.88885 305.55554 444.44443 305.55554 472.2222 305.55554L472.2222 305.55554L499.99997 305.55554z" stroke="#FFFFFF" stroke-width="0.46296296" fill="#FFFFFF" fill-rule="nonzero" />
	</g>
</g>
</svg>